<svg xmlns="http://www.w3.org/2000/svg" viewBox="0 0 24 24" width="24" height="24" aria-hidden="true">
  <title>WhatsApp</title>
  <circle cx="12" cy="12" r="12" fill="#25D366" />
  <path d="M17.6 14.2c-.3-.15-1.72-.85-1.98-.95-.27-.1-.47-.15-.67.15-.2.3-.78.95-.96 1.14-.18.2-.36.22-.66.07-.3-.15-1.24-.46-2.36-1.45-.87-.78-1.46-1.75-1.63-2.05-.17-.3-.02-.46.13-.61.13-.13.3-.35.45-.53.15-.18.2-.3.3-.5.1-.2 0-.38-.02-.53-.02-.15-.67-1.62-.92-2.22-.24-.58-.49-.5-.67-.51-.17-.02-.37-.02-.57-.02-.2 0-.52.07-.8.37-.28.3-1.08 1.05-1.08 2.56 0 1.5 1.1 2.96 1.24 3.17.13.2 2.16 3.5 5.24 4.9 3.08 1.4 3.08.93 3.64.87.56-.07 1.82-.74 2.07-1.46.24-.73.24-1.36.17-1.46-.07-.1-.27-.15-.57-.3z" fill="#fff"/>
</svg>
